<svg xmlns="http://www.w3.org/2000/svg" width="73" height="70" viewBox="0 0 73 70" fill="none"><rect width="73" height="70" rx="13" fill="#fff"/><g clip-path="url(#a)"><path d="M53.07 44.91a11.2 11.2 0 0 1-3.703 2.483 11.2 11.2 0 0 1-4.368.84c-3.129 0-6.007-1.199-8.072-3.303-1.001-1.03-1.752-2.209-2.21-3.492a9.1 9.1 0 0 1 .604-7.53 10.3 10.3 0 0 1 2.461-2.946c2.002-1.641 4.547-2.524 7.217-2.524s5.214.862 7.216 2.503c1.022.841 1.857 1.83 2.44 2.945a9.26 9.26 0 0 1 1.042 5.785 9.22 9.22 0 0 1-2.647 5.238z" fill="#fff"/><path d="M38.324 37.694c.105-1.704.939-3.219 2.19-4.292 1.231-1.052 2.9-1.704 4.714-1.704 1.794 0 3.462.652 4.693 1.704 1.252 1.073 2.086 2.588 2.19 4.292.084 1.767-.605 3.408-1.835 4.628-1.273 1.22-3.046 1.998-5.048 1.998s-3.796-.778-5.068-1.998c-1.23-1.22-1.919-2.861-1.836-4.628" fill="#E75DEE"/><path d="M27.374 41.165c0 .673.209 1.977.543 3.008a15.9 15.9 0 0 0 3.378 5.911 17.7 17.7 0 0 0 5.924 4.27 18.9 18.9 0 0 0 15.56-.02 17.6 17.6 0 0 0 5.902-4.313 16 16 0 0 0 4.026-9.214 15.27 15.27 0 0 0-2.274-9.256 16.7 16.7 0 0 0-3.921-4.376L40.577 14.848l-.042-.042c-1.042-.8-2.815-.8-3.963 0-1.147.82-1.293 2.187-.25 3.05l6.633 5.448-20.253.022h-.02c-1.69 0-3.296 1.114-3.609 2.503-.334 1.43.814 2.608 2.545 2.63l10.262-.021-18.313 14.178-.063.063c-1.73 1.326-2.294 3.556-1.21 4.944 1.106 1.43 3.463 1.43 5.215.021l9.99-8.267s-.145 1.115-.145 1.788zm25.697 3.744a11.2 11.2 0 0 1-3.704 2.484 11.2 11.2 0 0 1-4.368.84c-3.129 0-6.007-1.199-8.072-3.303-1.001-1.03-1.752-2.209-2.21-3.492a9.1 9.1 0 0 1 .604-7.531 10.3 10.3 0 0 1 2.461-2.945c2.003-1.641 4.547-2.524 7.217-2.524s5.214.862 7.216 2.503c1.022.841 1.857 1.83 2.44 2.945a9.26 9.26 0 0 1 1.042 5.785 9.22 9.22 0 0 1-2.647 5.238z" fill="#E75DEE"/></g><defs><clipPath id="a"><path fill="#fff" d="M11 14h52v42H11z"/></clipPath></defs></svg>